<?xml version="1.0" encoding="utf-8"?>
<!-- Generator: Adobe Illustrator 18.1.1, SVG Export Plug-In . SVG Version: 6.00 Build 0)  -->
<!DOCTYPE svg PUBLIC "-//W3C//DTD SVG 1.1//EN" "http://www.w3.org/Graphics/SVG/1.1/DTD/svg11.dtd">
<svg version="1.1" id="Layer_1" xmlns="http://www.w3.org/2000/svg" xmlns:xlink="http://www.w3.org/1999/xlink" x="0px" y="0px"
	 viewBox="0 0 543 228" enable-background="new 0 0 543 228" xml:space="preserve">
<g>
	<g>
		<path fill="#FFFFFF" d="M432,104.6c1.6,0,3.2-0.2,4.8-0.4c1.6-0.3,3.1-0.7,4.4-1.3l-0.6-5.1c-1.2,0.5-2.4,0.9-3.7,1.2
			c-1.3,0.3-2.6,0.4-3.9,0.4c-2.4,0-4.2-0.6-5.4-1.8c-1.2-1.2-1.8-3-1.8-5.4h16c0.1-0.5,0.1-1.1,0.2-1.6c0-0.5,0-1,0-1.4
			c0-3.3-0.8-6-2.6-8.2c-1.8-2.2-4.5-3.3-8.3-3.4c-3.9,0.1-6.9,1.4-9,3.9c-2.1,2.5-3.1,5.8-3.2,9.8c0,4.5,1.1,7.9,3.3,10
			C424.8,103.5,427.9,104.6,432,104.6 M427.7,83.9c0.9-0.9,2-1.4,3.4-1.4c1.4,0,2.5,0.5,3.3,1.4c0.8,0.9,1.2,2.2,1.1,3.8h-9.5
			C426.3,86.1,426.9,84.9,427.7,83.9"/>
		<path fill="#FFFFFF" d="M480.2,96.5c0,3,0.5,5.1,1.6,6.3c1.1,1.2,3.1,1.8,5.9,1.8c0.9,0,1.8-0.1,2.8-0.2c0.9-0.1,1.8-0.3,2.6-0.5
			v-5.3c-0.5,0.1-1,0.2-1.6,0.3c-0.6,0.1-1.1,0.1-1.7,0.1c-1.1,0-1.9-0.3-2.4-0.9c-0.5-0.6-0.7-1.7-0.7-3.4V83.4h6.3v-5.1h-6.3v-9.7
			l-6.7,1.8v8h-4.4v5.1h4.5V96.5z"/>
		<path fill="#FFFFFF" d="M327.3,96.5c-0.1,3,0.5,5.1,1.6,6.3c1.1,1.2,3.1,1.8,5.9,1.8c0.9,0,1.8-0.1,2.8-0.2
			c0.9-0.1,1.8-0.3,2.7-0.5v-5.3c-0.5,0.1-1,0.2-1.5,0.3c-0.6,0.1-1.1,0.1-1.7,0.1c-1.1,0-1.9-0.3-2.4-0.9c-0.5-0.6-0.7-1.7-0.7-3.4
			V83.4h6.3v-5.1h-6.3v-9.7l-6.7,1.8v8h-4.4v5.1h4.5V96.5z"/>
		<path fill="#FFFFFF" d="M219.9,96.9h13.3l2.4,7.2h7.5L230.6,69H223l-12.3,35.1h6.8L219.9,96.9z M224.8,82.6c0.3-1,0.6-2,0.9-3
			c0.3-1,0.5-2,0.7-2.9h0c0.2,1,0.5,1.9,0.7,2.8c0.3,0.9,0.6,1.8,0.9,2.8l3.3,9.2h-9.8L224.8,82.6z"/>
		<path fill="#FFFFFF" d="M251.8,74.9c1.1,0,2.1-0.4,2.9-1.2c0.8-0.8,1.2-1.7,1.2-2.9c0-1.1-0.4-2.1-1.2-2.8
			c-0.8-0.8-1.8-1.1-2.9-1.2c-1.2,0-2.1,0.4-2.9,1.2c-0.8,0.8-1.2,1.7-1.2,2.8c0,1.2,0.4,2.1,1.2,2.9
			C249.7,74.5,250.7,74.9,251.8,74.9"/>
		<path fill="#FFFFFF" d="M508.2,119c-2.3,0.1-4.4,0.3-6.4,0.5v4.9c0.9,0.1,1.8,0.1,2.8,0.3c1,0.1,1.8,0.2,2.6,0.4v38.9h7.9v-45
			C512.7,118.9,510.5,118.9,508.2,119"/>
		<path fill="#FFFFFF" d="M413.9,104.1V86.3c0-2.9-0.7-5.1-2-6.5c-1.3-1.4-3.2-2.1-5.7-2.1c-2.2,0.1-4,0.6-5.4,1.7
			c-1.4,1-2.4,2.2-3,3.6c-0.3-1.3-1-2.5-2.1-3.5c-1.1-1.1-2.8-1.6-5.1-1.7c-1.9,0-3.7,0.5-5.1,1.4c-1.5,0.9-2.6,2.2-3.4,3.8h0
			c0.1-0.8,0.2-1.6,0.2-2.4c0-0.9,0.1-1.6,0.1-2.2c-1.7,0-3.6,0-5.4,0c-1.9,0.1-3.7,0.2-5.3,0.4v4.2c0.8,0,1.6,0.1,2.4,0.2
			c0.8,0.1,1.5,0.2,2.2,0.3v20.8h6.6V91.7c0-2.5,0.7-4.5,1.8-6c1.1-1.6,2.5-2.4,4.1-2.4c1.2,0,2.1,0.5,2.5,1.3
			c0.4,0.8,0.6,1.9,0.6,3.2v16.4h6.5V91.7c0.1-2.6,0.7-4.6,1.9-6.1c1.2-1.5,2.5-2.3,4-2.3c1.2,0,2,0.4,2.5,1.2
			c0.4,0.8,0.6,1.9,0.6,3.3v16.4H413.9z"/>
		<path fill="#FFFFFF" d="M460.5,139.5h-0.1c0.2-1.1,0.3-2.2,0.4-3.3c0.1-1.1,0.1-2.1,0.1-2.9c-2.1-0.1-4.2-0.1-6.5,0
			c-2.2,0.1-4.3,0.3-6.3,0.5v4.9c0.9,0.1,1.8,0.2,2.8,0.3c0.9,0.1,1.8,0.2,2.6,0.4v24.6h7.8v-12.5c0-8.5,2.8-12.2,8.5-11l0.4-7.8
			c-2.6-0.2-4.7,0.5-6.3,1.8C462.4,135.8,461.2,137.5,460.5,139.5"/>
		<path fill="#FFFFFF" d="M441.2,157.9v-39c-2.3-0.1-4.6,0-6.8,0.1c-2.3,0.1-4.4,0.3-6.4,0.5v4.9c0.9,0.1,1.9,0.1,2.8,0.3
			c1,0.1,1.8,0.2,2.6,0.4v8c-0.7-0.1-1.3-0.2-2-0.2c-0.6,0-1.3,0-1.9,0c-5.1,0.1-9.1,1.7-11.9,4.8c-2.8,3.2-4.2,7.4-4.3,12.7
			c0,4.4,0.9,7.9,2.8,10.5c1.9,2.6,4.6,3.8,8.4,3.9c2.4,0,4.4-0.6,6-1.6c1.6-1.1,2.9-2.4,3.7-4.2h0.1c-0.1,0.9-0.2,1.7-0.3,2.6
			c-0.1,0.9-0.1,1.7-0.1,2.5c2.1,0.1,4.2,0.1,6.4,0c2.2-0.1,4.3-0.3,6.3-0.5v-4.9c-0.9-0.1-1.8-0.2-2.8-0.3
			C442.8,158.2,441.9,158,441.2,157.9 M433.3,148c0,2.7-0.6,5-1.7,7c-1.1,1.9-2.8,3-4.9,3.1c-1.8,0-3.1-0.7-3.9-2.2
			c-0.9-1.5-1.3-3.6-1.3-6.5c0-3.8,0.8-6.4,2.2-8.1c1.4-1.6,3.2-2.4,5.5-2.4c0.7,0,1.4,0,2,0.1c0.7,0.1,1.4,0.2,2.1,0.4V148z"/>
		<path fill="#FFFFFF" d="M397.6,132.6c-2.5,0-4.6,0.6-6.4,1.7c-1.8,1.1-3.1,2.6-4,4.4l-0.1-0.1c0.2-0.8,0.3-1.8,0.3-2.8
			c0-1,0.1-1.9,0.1-2.7c-2.1-0.1-4.3-0.1-6.5,0c-2.2,0.1-4.3,0.3-6.3,0.5v4.9c0.9,0.1,1.8,0.2,2.8,0.3c1,0.1,1.8,0.2,2.6,0.4v24.6
			h7.8v-14.8c0-2.8,0.7-5.1,2.1-7c1.3-1.9,3-2.9,5.1-3c1.4,0,2.4,0.5,3,1.4c0.6,0.9,0.8,2.2,0.8,3.8v19.6h7.8v-21.5
			c0-2.7-0.6-5-2-6.9C403.4,133.7,401,132.7,397.6,132.6"/>
		<path fill="#FFFFFF" d="M464.3,77.6c-2.1,0-3.9,0.5-5.4,1.5c-1.5,0.9-2.6,2.2-3.4,3.8l0,0c0.1-0.7,0.2-1.5,0.3-2.4
			c0.1-0.9,0.1-1.6,0.1-2.3c-1.8,0-3.6,0-5.4,0c-1.9,0.1-3.6,0.2-5.3,0.4v4.2c0.8,0,1.5,0.1,2.4,0.2c0.8,0.1,1.5,0.2,2.2,0.3v20.7
			h6.6V91.6c0-2.3,0.6-4.3,1.7-5.9c1.1-1.6,2.6-2.4,4.3-2.5c1.2,0,2,0.4,2.5,1.1c0.5,0.7,0.7,1.8,0.7,3.2v16.5h6.6V85.9
			c0-2.3-0.5-4.3-1.7-5.8C469.1,78.5,467.1,77.7,464.3,77.6"/>
		<path fill="#FFFFFF" d="M525.4,119c-2.3,0.1-4.4,0.3-6.4,0.5v4.9c0.9,0.1,1.8,0.1,2.8,0.3c1,0.1,1.8,0.2,2.6,0.4v38.9h7.9v-45
			C530,118.9,527.7,118.9,525.4,119"/>
		<path fill="#FFFFFF" d="M487.4,132.6c-4.6,0.1-8.1,1.6-10.6,4.6c-2.5,3-3.7,6.9-3.7,11.7c0,5.4,1.3,9.3,3.9,11.9
			c2.6,2.5,6.3,3.8,11.2,3.8c1.9,0,3.8-0.2,5.7-0.5c1.9-0.3,3.6-0.8,5.3-1.5l-0.7-6.1c-1.3,0.6-2.8,1.1-4.3,1.4
			c-1.5,0.3-3.1,0.5-4.6,0.5c-2.9,0-5-0.7-6.4-2.1c-1.4-1.4-2.1-3.5-2.1-6.4h19c0.1-0.7,0.2-1.3,0.2-1.9c0-0.6,0.1-1.2,0.1-1.7
			c0-3.9-1-7.1-3.1-9.7C495.1,134.1,491.8,132.8,487.4,132.6 M481.1,144.5c0.2-1.9,0.9-3.4,1.9-4.5c1.1-1.1,2.4-1.6,4-1.7
			c1.7,0,3,0.6,3.9,1.6c1,1.1,1.4,2.6,1.4,4.5H481.1z"/>
		<path fill="#FFFFFF" d="M358.7,132.6c-4.6,0.1-8.2,1.6-10.6,4.6c-2.5,3-3.7,6.9-3.7,11.7c0,5.4,1.3,9.3,3.9,11.9
			c2.6,2.5,6.3,3.8,11.2,3.8c1.9,0,3.8-0.2,5.7-0.5c1.9-0.3,3.6-0.8,5.3-1.5l-0.7-6.1c-1.4,0.6-2.8,1.1-4.3,1.4
			c-1.5,0.3-3.1,0.5-4.6,0.5c-2.8,0-5-0.7-6.4-2.1c-1.4-1.4-2.1-3.5-2.1-6.4h19c0.1-0.7,0.2-1.3,0.2-1.9c0-0.6,0.1-1.2,0.1-1.7
			c0-3.9-1-7.1-3.1-9.7C366.4,134.1,363.1,132.8,358.7,132.6 M352.4,144.5c0.2-1.9,0.9-3.4,1.9-4.5c1.1-1.1,2.4-1.6,4.1-1.7
			c1.7,0,3,0.6,4,1.6c0.9,1.1,1.4,2.6,1.3,4.5H352.4z"/>
		<path fill="#FFFFFF" d="M238.2,157.9v-39c-2.3-0.1-4.6,0-6.8,0.1c-2.3,0.1-4.4,0.3-6.4,0.5v4.9c0.9,0.1,1.9,0.1,2.8,0.3
			c1,0.1,1.8,0.2,2.6,0.4v8c-0.7-0.1-1.3-0.2-2-0.2c-0.6,0-1.3,0-1.9,0c-5.1,0.1-9.1,1.7-11.9,4.8c-2.8,3.2-4.3,7.4-4.3,12.7
			c0,4.4,0.9,7.9,2.8,10.5c1.9,2.6,4.7,3.8,8.4,3.9c2.4,0,4.4-0.6,6-1.6c1.6-1.1,2.9-2.4,3.7-4.2h0.1c-0.1,0.9-0.2,1.7-0.3,2.6
			c0,0.9-0.1,1.7-0.1,2.5c2.1,0.1,4.2,0.1,6.4,0c2.2-0.1,4.3-0.3,6.3-0.5v-4.9c-0.9-0.1-1.8-0.2-2.8-0.3
			C239.8,158.2,238.9,158,238.2,157.9 M230.4,148c0,2.7-0.6,5-1.8,7c-1.1,1.9-2.8,3-4.9,3.1c-1.8,0-3.1-0.7-3.9-2.2
			c-0.9-1.5-1.3-3.6-1.3-6.5c0-3.8,0.8-6.4,2.2-8.1c1.4-1.6,3.2-2.4,5.5-2.4c0.7,0,1.4,0,2,0.1c0.7,0.1,1.4,0.2,2.1,0.4V148z"/>
		<path fill="#FFFFFF" d="M281.6,119c-2.3,0.1-4.4,0.3-6.4,0.5v4.9c0.9,0.1,1.9,0.1,2.8,0.3c1,0.1,1.8,0.2,2.6,0.4v38.9h7.9v-45
			C286.1,118.9,283.9,118.9,281.6,119"/>
		<path fill="#FFFFFF" d="M260.7,132.6c-4.6,0.1-8.2,1.6-10.6,4.6c-2.5,3-3.7,6.9-3.7,11.7c0,5.4,1.3,9.3,3.9,11.9
			c2.6,2.5,6.4,3.8,11.2,3.8c1.9,0,3.8-0.2,5.7-0.5c1.9-0.3,3.6-0.8,5.3-1.5l-0.7-6.1c-1.3,0.6-2.8,1.1-4.3,1.4
			c-1.5,0.3-3.1,0.5-4.6,0.5c-2.8,0-5-0.7-6.4-2.1c-1.4-1.4-2.1-3.5-2.1-6.4h19c0.1-0.7,0.1-1.3,0.2-1.9c0-0.6,0.1-1.2,0.1-1.7
			c0-3.9-1-7.1-3.1-9.7C268.5,134.1,265.2,132.8,260.7,132.6 M254.5,144.5c0.2-1.9,0.9-3.4,1.9-4.5c1-1.1,2.4-1.6,4.1-1.7
			c1.7,0,3,0.6,3.9,1.6c0.9,1.1,1.4,2.6,1.4,4.5H254.5z"/>
		<path fill="#FFFFFF" d="M255.2,106V78.2c-1.9-0.1-3.9,0-5.8,0c-1.9,0.1-3.7,0.2-5.4,0.4v4.2c0.8,0.1,1.5,0.1,2.4,0.2
			c0.8,0.1,1.5,0.2,2.2,0.3v23.3c0,1.7-0.2,3-0.8,3.7c-0.5,0.7-1.4,1.1-2.8,1c-0.5,0-1-0.1-1.6-0.2c-0.5-0.1-1.1-0.3-1.5-0.4
			l-0.4,5.6c0.6,0.2,1.1,0.3,1.8,0.4c0.7,0.1,1.3,0.2,1.9,0.2c3.7,0,6.3-1,7.8-2.9C254.5,112.2,255.2,109.5,255.2,106"/>
		<path fill="#FFFFFF" d="M327.6,146.2c-0.6,1.7-1.1,3.2-1.4,4.6c-0.4,1.3-0.7,2.7-1,4.1H325c-0.4-1.5-0.8-3-1.2-4.3
			c-0.4-1.4-0.8-2.6-1.2-3.8l-8.1-24.3h-8.8l14.5,41.6h9.2l14.5-41.6h-8.2L327.6,146.2z"/>
		<path fill="#FFFFFF" d="M348.2,90.7c-2.7,1.6-4.1,3.9-4.2,7.1c0,2.1,0.7,3.8,1.9,5c1.3,1.2,3.1,1.8,5.4,1.8c2,0,3.7-0.5,5.1-1.4
			c1.4-0.9,2.5-2.1,3.2-3.6l0.1,0.1c-0.1,0.7-0.2,1.4-0.2,2.1c0,0.8-0.1,1.5-0.1,2.3c1.7,0,3.5,0,5.4-0.1c1.9-0.1,3.6-0.2,5.3-0.4
			v-4.2c-0.8,0-1.6-0.1-2.4-0.2c-0.8-0.1-1.5-0.2-2.2-0.3V86.6c0.1-2.9-0.7-5.1-2.2-6.6c-1.6-1.5-4.4-2.4-8.5-2.4
			c-1.7,0-3.3,0.2-4.9,0.5c-1.6,0.3-3.1,0.7-4.4,1.2l0.6,5.6c1.1-0.6,2.4-1.1,3.8-1.5c1.4-0.4,2.7-0.5,3.9-0.5c1.9,0,3.2,0.3,3.9,1
			c0.8,0.7,1.1,1.7,1.1,3.1v1.4C354.5,88.3,350.9,89.1,348.2,90.7 M358.9,93.3c0,1.6-0.5,3-1.5,4.3c-1,1.2-2.3,1.9-4,1.9
			c-1,0-1.7-0.3-2.3-0.8c-0.5-0.5-0.8-1.1-0.8-2c-0.1-1.1,0.5-2,1.6-2.8c1.2-0.8,3.5-1.2,6.9-1.3V93.3z"/>
		<path fill="#FFFFFF" d="M309.3,83.2c1.2,0,2,0.4,2.5,1.1c0.5,0.7,0.7,1.8,0.7,3.2v16.5h6.6V85.9c0-2.3-0.5-4.3-1.7-5.8
			c-1.2-1.6-3.2-2.4-6-2.4c-2.1,0-3.9,0.5-5.4,1.5c-1.5,0.9-2.6,2.2-3.4,3.8l-0.1,0c0.1-0.7,0.2-1.5,0.3-2.4
			c0.1-0.9,0.1-1.6,0.1-2.3c-1.8,0-3.6,0-5.5,0c-1.9,0.1-3.6,0.2-5.3,0.4v4.2c0.8,0,1.6,0.1,2.4,0.2c0.8,0.1,1.5,0.2,2.2,0.3v20.8
			h6.6V91.6c0.1-2.3,0.6-4.3,1.8-5.9C306.2,84.1,307.6,83.3,309.3,83.2"/>
		<path fill="#FFFFFF" d="M286.3,99V78.2h-6.6v12.5c0,2.3-0.6,4.3-1.8,5.9c-1.1,1.6-2.5,2.4-4.3,2.5c-1.2,0-2-0.4-2.5-1.1
			c-0.5-0.8-0.7-1.8-0.7-3.2V78.2c-1.8,0-3.7,0-5.6,0c-1.9,0.1-3.8,0.2-5.5,0.4v4.2c0.8,0,1.5,0.1,2.3,0.2c0.8,0.1,1.5,0.2,2.1,0.3
			v13.1c0,2.3,0.5,4.3,1.7,5.8c1.2,1.6,3.2,2.4,6.1,2.4c2.1,0,3.9-0.5,5.4-1.5c1.5-0.9,2.6-2.2,3.4-3.7l0.1,0.1
			c-0.1,0.8-0.2,1.6-0.2,2.4c0,0.9-0.1,1.6-0.1,2.2c1.7,0,3.6,0,5.4-0.1c1.9-0.1,3.6-0.2,5.3-0.4v-4.2c-0.8-0.1-1.6-0.1-2.4-0.2
			C287.7,99.2,286.9,99.1,286.3,99"/>
	</g>
	<g>
		<path fill-rule="evenodd" clip-rule="evenodd" fill="#FFF4CB" d="M116.4,27.8c-0.1-0.2-0.3-1.4-0.4-1.7c-0.1-0.3-0.2-1.9-0.5-2.8
			c-0.3-0.9-0.9-1-1-1.3c-0.2-0.3-0.4-1.9-0.4-1.9l-2.7-1.8l-2.2-0.3l-1.5,0.5c0,0-2.3-0.1-3.9-0.2v0h0h0v0
			c-1.6,0.1-3.9,0.2-3.9,0.2l-1.5-0.5l-2.2,0.3L93.4,20c0,0-0.2,1.6-0.4,1.9c-0.2,0.3-0.7,0.4-1,1.3c-0.3,1-0.5,2.5-0.5,2.8
			c-0.1,0.3-0.3,1.5-0.4,1.7c-0.1,0.2-0.2,0.9,0,1.3c0.2,0.4,0.6,1.2,0.8,1.4c0.1,0.2,1,2.1,1,2.1l0.6,1.4l1.1,3c0,0,2,3.4,3.4,4.5
			c1.5,1.2,1.8,1.2,2.4,1.8c0.5,0.5,1.4,1.2,3.4,1.1h0h0c1.9,0.1,2.8-0.6,3.3-1.1c0.6-0.6,0.9-0.6,2.4-1.8c1.4-1.1,3.4-4.5,3.4-4.5
			l1.1-3l0.6-1.4c0,0,0.9-1.9,1-2.1c0.2-0.2,0.5-1,0.8-1.4C116.6,28.7,116.5,28,116.4,27.8"/>
		<path fill="#7DB629" d="M49.3,132.4c-2.4,2.4-4,6.8-4.4,11.8v0c0,0.4,0,0.9-0.1,1.3c0,0.5,0,1.1,0,1.6c0.1,1.7,0.3,3.2,0.7,4.6
			c0.1,0.5,0.3,1.1,0.5,1.6c0,0.1,0.1,0.2,0.1,0.3c0.2,0.2,0.3,0.4,0.4,0.6c0.2,0.2,0.3,0.5,0.5,0.7v0c0.2,0.4,0.5,0.8,0.6,1.2
			c0,0,0,0.1,0,0.1c0.1-0.1,0.1-0.1,0.2-0.2c0.1-0.1,0.3-0.3,0.4-0.4c2-2.4,3.4-6.3,3.7-10.8C52.3,139.6,51.3,135.1,49.3,132.4
			 M26.9,121.8c0.2,1.1,0.5,2.1,0.8,3c0.1,0.3,0.2,0.6,0.3,0.9c0.1,0.4,0.3,0.7,0.4,1.1c0.3,0.8,0.7,1.5,1.1,2.1
			c0.4,0.7,0.9,1.4,1.3,2c0.1,0.1,0.1,0.1,0.2,0.2c0.1-0.2,0.2-0.4,0.3-0.6c0.1-0.1,0.2-0.2,0.3-0.4c0.1-0.1,0.3-0.3,0.4-0.4
			c0.1-0.1,0.3-0.2,0.4-0.3c0.2-0.1,0.3-0.2,0.5-0.3c0.2-0.1,0.4-0.1,0.6-0.2c0,0,0.1,0,0.1,0c0,0,0.1,0,0.2,0c0.1,0,0.2,0,0.3,0h0
			c0-0.1,0-0.2,0-0.2c0.2-1.3,0.3-2.7,0.2-4.2c0-0.6-0.1-1.3-0.2-2c-0.1-0.7-0.2-1.4-0.3-2.1c-0.9-4.1-2.5-7.5-4.6-9.7
			c-0.1,0-0.1,0-0.2,0.1c-0.2,0.1-0.4,0.1-0.5,0.1c-0.2,0-0.3,0-0.5,0H28h0c-0.2,0-0.4,0-0.6-0.1c-0.3,0.8-0.6,1.7-0.7,2.6
			c-0.1,0.6-0.2,1.3-0.2,1.9c-0.1,0.9-0.1,1.8,0,2.7C26.5,119.3,26.6,120.5,26.9,121.8 M45.8,155c-0.2-0.3-0.4-0.6-0.7-0.9
			c-1.1-1.4-2.6-2.6-4.4-3.8c-0.3-0.2-0.7-0.4-1-0.6c-0.3-0.2-0.6-0.4-1-0.5c-0.1-0.1-0.3-0.1-0.4-0.2c-0.3-0.2-0.6-0.3-1-0.4
			c-0.2-0.1-0.3-0.2-0.5-0.3c-0.1,0-0.2-0.1-0.4-0.1c-2.8-1.1-5.6-1.8-8.1-1.8c-1.4,0-2.6,0.2-3.7,0.6c1.4,3,4.9,5.9,9.4,7.9
			c1,0.4,2,0.7,3,1c1.7-0.4,3.3-0.6,5-0.6c0.2,0,0.4,0,0.5,0c0.1,0,0.2,0,0.3,0c0.1,0,0.3,0,0.4,0c0.3,0,0.5,0,0.8,0.1
			c0,0,0.1,0,0.2,0c0.6,0.1,1.2,0.2,1.8,0.3c0.1,0,0.2,0.1,0.3,0.1c0,0,0,0,0,0c0,0,0,0,0-0.1C46.1,155.5,46,155.2,45.8,155
			 M28.3,78.7c0.2,0.1,0.3,0.2,0.4,0.3c0,0.1,0.1,0.1,0.2,0.2c0,0,0,0,0,0c0.1-0.1,0.2-0.2,0.3-0.3c0-0.1,0.1-0.1,0.2-0.2
			c0.1-0.1,0.2-0.2,0.3-0.3c0.6-0.7,1.2-1.4,1.8-2.3c0.1-0.2,0.3-0.4,0.4-0.6c0.1-0.2,0.2-0.4,0.3-0.6c0.9-1.6,1.7-3.5,2.3-5.6
			c1.3-4.8,1.1-9.5-0.3-12.6c-2.8,1.9-5.2,5.9-6.5,10.7c-0.4,1.4-0.6,2.7-0.7,4c0,0.3-0.1,0.7-0.1,1c0,0.4,0,0.9,0,1.3
			c0,1.7,0.2,3.2,0.7,4.5C27.8,78.4,28.1,78.5,28.3,78.7 M33.7,93.4c-0.2,0.3-0.5,0.6-0.7,0.8c-0.3,0.3-0.5,0.7-0.8,1
			c-0.1,0.2-0.3,0.4-0.4,0.6c-1.7,2.5-2.9,5.1-3.4,7.5c0,0.2-0.1,0.4-0.1,0.6h0c0,0,0.1,0,0.1,0c0.2,0,0.3,0,0.5,0.1
			c0.2,0,0.4,0.1,0.5,0.2c0.2,0.1,0.4,0.2,0.5,0.3c0.2,0.1,0.3,0.2,0.5,0.4c0.1,0.1,0.3,0.3,0.4,0.5c0.1,0.2,0.3,0.4,0.4,0.7
			c0.4-0.2,0.7-0.5,1.1-0.8c0.2-0.1,0.3-0.2,0.5-0.4c0.2-0.1,0.3-0.3,0.5-0.4c1.5-1.3,3-2.9,4.3-4.9c2.8-4.1,4.2-8.6,3.8-12
			C38.9,88.5,36.1,90.5,33.7,93.4"/>
		<path fill="#CBCCCD" d="M153.1,62.7c-5.5-1.7-17.3-3.4-23-3.4c-0.3,0-0.5,0-0.8,0c-3.7,3.6-7.9,8.8-7.9,8.9l-0.5,0.8H85.6
			l-0.5-0.8c-0.1-0.1-4.2-5.3-7.9-8.9c-0.3,0-0.5,0-0.8,0c-5.7,0-17.5,1.6-23,3.4C84.3,88.8,41,147.8,71,167.9
			c0,0-4.2,8.2-11.9,10.4c5.5,3.4,13.5,7.7,17,8.9c8.1-1.5,10.5-9.4,10.5-9.4s5.7,2.1,16.7,2.1c11,0,16.7-2.1,16.7-2.1
			s2.4,7.9,10.5,9.4c3.5-1.2,11.5-5.6,17-8.9c-7.7-2.2-11.9-10.4-11.9-10.4C165.5,147.8,122.2,88.8,153.1,62.7"/>
		<path fill="#FFFFFF" d="M114.6,162.3c-1,0.3-2,0.7-3.1,1.1c-2.9,1-5.8,2-8.3,3.1c-2.4-1.1-5.4-2.1-8.3-3.1
			c-1.1-0.4-2.1-0.8-3.1-1.1c-16.2-5.8-17.5-13.7-17.6-19.3c0-0.8,0-1.5,0.1-2.2l0-0.8V85.9c0-2.4,0.2-3.7,0.8-4.2
			c0.5-0.6,1.6-0.9,4.1-0.9h48.4c2.5,0,3.5,0.1,3.9,0.6c0.4,0.4,0.6,1.2,0.5,3.3v0.4V140l0,0.7c0,0.7,0.1,1.4,0.1,2.3
			C132.1,148.6,130.9,156.5,114.6,162.3"/>
		<path fill="#1C8A37" d="M23.8,79.2c0.6-0.7,1.5-1.1,2.5-1.1c-0.5-1.9-0.7-4.1-0.5-6.4c-0.3-0.6-0.7-1.3-1.2-1.9
			c-2.8-4.1-6.4-7.1-9.6-8c-0.4,3.4,1,7.8,3.8,12C20.3,76,22,77.8,23.8,79.2 M47.1,157.2C47.1,157.2,47,157.2,47.1,157.2
			c-0.3-0.1-0.6-0.2-1-0.3c-0.4-0.1-0.8-0.2-1.2-0.3c-0.1,0-0.1,0-0.2,0c-0.2,0-0.4-0.1-0.6-0.1c-0.2,0-0.5-0.1-0.8-0.1
			c-0.5,0-0.9-0.1-1.4-0.1c-0.6,0-1.3,0-1.9,0.1c-0.6,0.1-1.2,0.1-1.8,0.2c-0.4,0.1-0.9,0.2-1.3,0.3c-0.5,0.1-1,0.2-1.5,0.4
			c-4.8,1.4-8.7,3.8-10.6,6.7c1.6,0.7,3.5,1.1,5.8,1.1c2.1,0,4.5-0.3,6.8-1c1.4-0.4,2.7-0.9,3.8-1.4c0.3-0.2,0.7-0.3,1-0.5
			c0.5-0.3,1-0.5,1.5-0.8c0.3-0.2,0.6-0.4,0.9-0.6c0.3-0.2,0.6-0.4,0.8-0.7c0.1-0.2,0.2-0.4,0.3-0.7c0.1-0.2,0.2-0.3,0.3-0.5
			c0.1-0.1,0.3-0.3,0.4-0.4c0.3-0.3,0.7-0.5,1-0.6c0.1-0.1,0.2-0.2,0.3-0.3c-0.1-0.1-0.3-0.1-0.5-0.2
			C47.2,157.3,47.1,157.2,47.1,157.2 M29.8,131.5c-1.3-1.7-2.3-3.7-3.1-5.9c-1.2-0.8-2.4-1.5-3.9-2.2c-3.1-1.4-6.1-2.1-8.8-2.1
			c-1.2,0-2.3,0.2-3.4,0.5c1.4,3.1,4.7,6,9.2,8.1c2.8,1.3,5.7,2,8.2,2.2C28.7,131.7,29.2,131.5,29.8,131.5 M25.4,87.8
			c-0.4,1.4-0.7,2.8-0.9,4.3c-0.1,1.1-0.2,2.3-0.2,3.4c0,1.3,0.1,2.7,0.3,3.9v0c0.1,0.8,0.3,1.5,0.5,2.2c0.2,0.5,0.4,1.1,0.6,1.6
			c0.2,0.5,0.4,0.9,0.7,1.3c0,0,0.1,0,0.1,0c0.2-0.1,0.5-0.2,0.7-0.3c0-0.3,0.1-0.6,0.1-0.9c0.1-0.7,0.3-1.3,0.6-2
			c0.2-0.5,0.4-1.1,0.6-1.6c0.7-1.5,1.5-3,2.4-4.4c0.5-0.8,1.1-1.6,1.8-2.3c0.1-1.1,0.2-2.1,0.2-3.2c0-2.9-0.5-5.7-1.6-7.9
			c-0.4-0.1-0.9-0.4-1.2-0.6c-0.1-0.1-0.2-0.1-0.3-0.2c0,0.2,0.1,0.4,0.1,0.6v0.1v0c0,0.7-0.2,1.3-0.6,1.8c-0.2,0.3-0.4,0.5-0.7,0.7
			c-0.5,0.4-1.1,0.7-1.7,0.8c-0.2,0-0.3,0-0.4,0.1c-0.1,0.1-0.1,0.2-0.2,0.4C25.9,86.2,25.6,86.9,25.4,87.8 M22.1,108
			c0.3-0.1,0.7-0.2,1.1-0.2c0.1,0,0.1,0,0.2,0c0.4,0,0.9,0.1,1.3,0.2c0-0.2-0.1-0.4-0.1-0.6v-0.1c0-0.3,0.1-0.6,0.1-0.9
			c0.1-0.4,0.3-0.8,0.5-1.1c0.1-0.1,0.2-0.2,0.3-0.3c0,0,0-0.1,0-0.1c-0.1-0.1-0.2-0.3-0.3-0.4c-0.2-0.4-0.4-0.8-0.6-1.2
			c-0.5-1.1-0.8-2.4-1-3.7c-0.3-0.6-0.6-1.1-0.9-1.7c-2.6-4.3-6-7.5-9.2-8.6c-0.6,3.3,0.6,7.8,3.1,12.2
			C18.1,104.3,20.1,106.5,22.1,108 M34.5,139.5c0.1,0.9,0.4,1.8,0.7,2.7c0.5,1.5,1.1,3,1.9,4.6c0.1,0.1,0.1,0.2,0.2,0.4h0
			c0.2,0.1,0.3,0.2,0.5,0.3c0.3,0.1,0.6,0.3,0.9,0.4c0.3,0.1,0.6,0.3,0.9,0.5c1.6,0.9,3.1,1.8,4.3,3c0.2,0.1,0.3,0.2,0.4,0.4
			c-0.1-0.4-0.2-0.8-0.2-1.2c0-0.2-0.1-0.4-0.1-0.6c0-0.3-0.1-0.6-0.1-0.9c-0.2-1.5-0.2-3-0.1-4.6c-0.2-0.3-0.3-0.6-0.5-1
			c-1.7-3.2-3.9-5.8-6.2-7.4c-0.3-0.2-0.6-0.4-0.9-0.6c-0.2,0.1-0.3,0.2-0.5,0.3c-0.2,0.1-0.5,0.2-0.8,0.2c-0.2,0-0.4,0.1-0.6,0.1
			c0,0-0.1,0-0.1,0c0,0.6,0,1.2,0,1.8C34.3,138.3,34.3,138.9,34.5,139.5 M83.4,186.2c3.9,1.7,8.1,3.2,12.5,4.6
			c0.3-0.1,0.5-0.2,0.7-0.2v-1.8c0-0.3,0-0.6,0.1-0.9c-4.1-1.3-7.5-2.5-11.1-4C85.2,184.7,84.3,185.5,83.4,186.2 M36.3,129.6
			c0.2-0.2,0.4-0.4,0.6-0.5c0.5-0.4,1.2-0.6,1.8-0.6c1.7-1.7,3.2-4,4.4-6.8c1.9-4.6,2.5-9.2,1.5-12.5c-3,1.5-6,5.1-8,9.7
			c-0.5,1.2-0.9,2.5-1.3,3.7c0.3,2.2,0.2,4.5-0.1,6.5C35.6,129.2,36,129.4,36.3,129.6 M109.6,192.4c-0.1,0.9-0.4,1.7-1,2.3
			c1.3,0.4,2.7,0.9,4.1,1.4c0.5-0.3,1-0.6,1.5-1c0.5-0.4,1-0.8,1.4-1.2c-1.8-0.7-3.6-1.3-5.2-1.8
			C110.1,192.2,109.9,192.3,109.6,192.4 M62.2,169.5L62.2,169.5c-3.5-2.5-6.5-5-9.4-7.9l-0.6-0.6l-0.1,0.9c-0.1,0.7-0.4,1.3-0.8,1.7
			l-0.3,0.3l0.3,0.3c2.7,2.7,5.6,5,8.8,7.4l-0.5,0.4c-2.1,2.3-2.8,4.4-2.9,5.3l1.3-0.4c5.6-1.6,9.3-6.9,10.3-8.4c0,0,0-0.1,0.1-0.1
			c-0.6-0.4-1.2-0.8-1.8-1.3C64.8,167.7,63.5,168.5,62.2,169.5 M140,205.4c-2.5-2.1-7.5-4.6-13-7c-0.2-0.1-0.4-0.2-0.6-0.3
			c-0.1-0.1-0.2-0.1-0.3-0.1c-0.1,0.1-0.2,0.2-0.3,0.3l0,0c-0.7,0.7-1.5,1.4-2.2,2c0.7,0.3,1.5,0.6,2.2,0.9c0,0,0,0,0.1,0
			c0.2,0.1,0.4,0.2,0.6,0.2c0.2,0.1,0.4,0.2,0.6,0.3c4.8,2.1,8.9,4.2,11,6c0.3,0.2,0.6,0.4,1,0.4c0.4,0,0.9-0.2,1.2-0.6
			C140.8,206.9,140.7,206,140,205.4"/>
		<path fill="#F9B308" d="M169.8,97.4c0.2,0.3,0.3,0.6,0.5,0.9c0.1,0.2,0.2,0.5,0.3,0.7c0.1,0.3,0.2,0.5,0.4,0.8
			c1.7,3.7,3,7.1,4,10.6c0.7-1.8,1.4-3.6,2.2-5.5c0.2-0.6,0.5-1.3,0.7-1.9c0.1-0.3,0.3-0.7,0.4-1c0.1-0.7,0.2-1.5,0.3-2.2
			c0.1-0.5,0.1-0.9,0.2-1.4c1-8,1.7-17.4,1.4-26c0-0.6,0-1.3-0.1-1.9c-0.9,4.9-2,9.7-3.2,14.2c-0.2,0.6-0.4,1.3-0.5,1.9
			c-0.2,0.6-0.4,1.3-0.6,1.9c-0.6,2-1.3,3.9-1.9,5.6c-0.1,0.2-0.3,0.4-0.5,0.4c-0.2,0-0.5-0.1-0.6-0.3c-0.4-0.9-0.8-1.9-1.2-2.9
			c-0.2-0.4-0.4-0.8-0.6-1.3c-0.2-0.4-0.4-0.9-0.6-1.3c-1.7-3.9-3.4-7.9-4.7-12.6c0.2,5.6,1.2,11.9,2.4,17.8
			C168.6,95.1,169.2,96.3,169.8,97.4 M177.7,122.7c-0.2,0.2-0.3,0.5-0.4,0.7c0,0.1-0.1,0.1-0.1,0.2c-0.1,0.1-0.1,0.2-0.2,0.3
			c-0.3,0.6-0.7,1.1-1,1.7c-0.1,0.2-0.2,0.4-0.4,0.6c-0.1,0.2-0.3,0.5-0.4,0.7c-0.1,0.2-0.3,0.5-0.4,0.7c-1.4,2.3-2.9,4.5-4.3,6.7
			c-0.5,0.8-1,1.5-1.5,2.2c-0.1,0.2-0.3,0.4-0.4,0.6c-0.1,0.1-0.1,0.2-0.2,0.2l0,0c-0.1,0.1-0.1,0.2-0.2,0.3
			c-0.1,0.2-0.2,0.3-0.3,0.5c0,0,0,0,0,0c-0.1,0.2-0.2,0.3-0.3,0.5c-0.2,0.3-0.4,0.6-0.6,0.9c-0.2,0.3-0.4,0.6-0.6,0.9
			c-0.1,0.1-0.2,0.2-0.3,0.4c-0.3,0.4-0.5,0.8-0.8,1.2c0,0.1,0,0.2,0,0.4c0,0.2,0,0.3,0,0.5c0.2-0.2,0.5-0.4,0.7-0.6
			c0.4-0.3,0.8-0.7,1.2-1.1c0,0,0,0,0,0c0.2-0.2,0.4-0.4,0.6-0.5c0.1-0.1,0.2-0.1,0.2-0.2c0.2-0.1,0.3-0.3,0.5-0.4
			c0,0,0.1-0.1,0.1-0.1c0.2-0.2,0.4-0.3,0.6-0.5c0.8-0.8,1.7-1.6,2.5-2.4c0.4-0.3,0.7-0.7,1.1-1c0.4-0.3,0.7-0.7,1.1-1
			c0.7-0.7,1.5-1.4,2.2-2.1c0.2-0.2,0.3-0.3,0.5-0.5c0.2-0.2,0.3-0.3,0.5-0.5c0.7-0.7,1.5-1.5,2.2-2.2c3.7-7.5,6.5-15.5,8-24.4
			c-0.9,2.1-2.1,4.5-3.4,6.9c-0.4,0.8-0.8,1.5-1.3,2.3c-0.4,0.7-0.8,1.5-1.3,2.3c-0.9,1.6-1.9,3.3-2.9,4.9
			C178.1,122,177.9,122.3,177.7,122.7 M171.5,146.3c-0.5,0.4-1.1,0.7-1.6,1c-0.1,0.1-0.3,0.1-0.4,0.2c-0.3,0.2-0.6,0.3-0.9,0.5
			c-0.4,0.2-0.8,0.4-1.2,0.6c-0.1,0-0.1,0.1-0.2,0.1c-0.3,0.2-0.6,0.3-0.9,0.5c-0.3,0.1-0.6,0.3-0.8,0.4c0,0,0,0-0.1,0
			c-0.2,0.1-0.3,0.1-0.5,0.2c-0.2,0.1-0.4,0.2-0.6,0.3c-0.7,0.3-1.4,0.6-2.2,0.8c-0.1,1.4-0.2,2.7-0.5,4.1c-0.1,0.3-0.1,0.5-0.2,0.7
			c0,0.1,0,0.2-0.1,0.3c0,0.2-0.1,0.3-0.1,0.4c0,0.2-0.1,0.3-0.1,0.5c0,0.1-0.1,0.2-0.1,0.4c0,0.1-0.1,0.2-0.1,0.4
			c0,0.1,0,0.2-0.1,0.2c-0.1,0.2-0.1,0.4-0.2,0.6c0,0,0,0,0,0c-0.1,0.2-0.1,0.4-0.2,0.7c0.1,0,0.1-0.1,0.2-0.1
			c0.2-0.1,0.5-0.3,0.7-0.4c0.1-0.1,0.2-0.1,0.3-0.2c0.4-0.3,0.9-0.5,1.3-0.8c0.8-0.5,1.6-1,2.4-1.5c0.2-0.1,0.4-0.3,0.6-0.4
			c5.3-3.8,9.9-8.6,16.3-17.1c-3.3,2.5-6,4.5-8.5,6.3C172.9,145.4,172.2,145.9,171.5,146.3 M161.4,144c0.1,0.4,0.2,0.8,0.3,1.3
			c0,0.2,0.1,0.5,0.1,0.7v0.1c0,0,0,0.1,0,0.1c0,0.2,0.1,0.4,0.1,0.6c0,0.1,0,0.2,0,0.3c0,0.1,0,0.3,0,0.5c0,0.3,0.1,0.6,0.1,0.9
			v0.1c0,0.2,0,0.4,0,0.6v0.1c0,0.1,0,0.2,0,0.3v0.2c0.2-0.1,0.5-0.1,0.7-0.2c0.5-0.2,1-0.4,1.5-0.6l0-0.1v-0.6c0-0.2,0-0.4,0-0.6
			c0-0.2,0-0.4,0-0.6c0-0.4,0-0.8,0-1.2v-0.2c0-0.1,0-0.2,0-0.3c0-0.1,0-0.3,0-0.4v-0.2c0-0.2,0-0.4,0-0.6v-0.2c0-0.3,0-0.7-0.1-1
			c0-0.3,0-0.7-0.1-1c-0.1-2.6-0.5-5.2-1.1-8c-0.2-0.8-0.4-1.7-0.7-2.5c-0.2-0.7-0.4-1.4-0.7-2.2c-0.7-2.1-1.7-4.4-2.9-6.8
			c0.5,3,0.7,6.1,0.8,9.1c0.1,2.3,0,4.6-0.1,6.8C160.3,140.1,161,142.1,161.4,144 M166.5,119.4c0.1,0.5,0.1,1,0.2,1.6
			c0,0.2,0,0.4,0.1,0.6c0,0.2,0,0.3,0,0.5c0.4,1.5,0.8,3,1,4.5c0.6-1.3,1.3-2.7,2-4.2c0.1-0.2,0.2-0.4,0.2-0.5
			c0.1-0.2,0.2-0.4,0.3-0.5c0.5-1,0.9-2.1,1.4-3.2c-1.2-3.1-2.7-6.3-4.8-9.9c-0.2-0.4-0.5-0.8-0.7-1.2c-0.2-0.4-0.5-0.8-0.7-1.1
			c-0.8-1.3-1.6-2.6-2.5-3.9c1.4,4.3,2.4,9,3.1,13.7C166.2,116.9,166.4,118.1,166.5,119.4"/>
		<path fill="#FFDD09" d="M80.3,198.1L80.3,198.1c-0.2,0.1-0.4,0.2-0.6,0.3c-0.2,0.1-0.4,0.2-0.6,0.3c-5.4,2.3-10.1,4.8-12.6,6.8
			c-0.7,0.5-0.7,1.5-0.2,2.2c0.3,0.4,0.7,0.6,1.2,0.6c0.4,0,0.7-0.1,1-0.4c2.1-1.7,6-3.8,10.6-5.8c0.2-0.1,0.4-0.2,0.6-0.3
			c0.2-0.1,0.4-0.2,0.6-0.2c0,0,0,0,0,0c0.8-0.3,1.7-0.7,2.5-1.1C82,199.7,81.2,198.9,80.3,198.1L80.3,198.1z M172.4,116.6
			c0.1-0.2,0.1-0.3,0.2-0.5c0.1-0.3,0.2-0.5,0.3-0.8c0.1-0.3,0.2-0.5,0.3-0.8c0.3-0.8,0.6-1.5,1-2.3c-1.2-4.7-2.8-9.1-5.4-14.1
			c-0.3-0.7-0.7-1.3-1-2c-0.3-0.6-0.6-1.2-1-1.7c-1-1.7-2.1-3.5-3.3-5.5c1.6,5.7,2.6,11.3,3.1,16.6
			C169.2,109.6,171,113.1,172.4,116.6 M171.5,88.4c0.6,1.3,1.1,2.6,1.7,3.9c0.9-2.4,1.7-5,2.5-7.8c-0.4-9.6-1.3-18-6-28.2
			c1.4,7.7,1.5,15.5,1.7,24.4C171.4,83.4,171.5,86,171.5,88.4 M175.1,113.2c-0.1,0.3-0.3,0.6-0.4,0.9c-0.3,0.7-0.5,1.3-0.8,1.9
			c-0.1,0.2-0.2,0.5-0.3,0.7c-0.1,0.2-0.2,0.5-0.3,0.7c-0.1,0.2-0.2,0.5-0.3,0.7c-0.1,0.3-0.2,0.5-0.4,0.8c-0.1,0.3-0.2,0.5-0.3,0.8
			c-0.3,0.6-0.6,1.2-0.8,1.8c-0.1,0.2-0.2,0.4-0.3,0.6c-0.1,0.2-0.2,0.4-0.2,0.6c-1,2.2-2,4.2-2.9,5.9c0.3,2,0.5,3.9,0.6,6
			c0.2-0.3,0.4-0.6,0.6-0.9c0.6-0.9,1.2-1.8,1.8-2.7c0.5-0.8,1.1-1.7,1.6-2.5c0.5-0.8,1-1.6,1.5-2.4c0.1-0.2,0.3-0.5,0.4-0.7
			c0.1-0.2,0.3-0.5,0.4-0.7c0.2-0.3,0.4-0.6,0.6-1c0.1-0.2,0.2-0.4,0.3-0.5c0.1-0.2,0.2-0.4,0.3-0.5c0-0.1,0.1-0.1,0.1-0.2
			c0.2-0.3,0.3-0.5,0.5-0.8c0.1-0.1,0.2-0.3,0.3-0.5c0.1-0.1,0.1-0.2,0.2-0.3c0.3-0.5,0.6-1,0.9-1.5c0.3-0.6,0.7-1.2,1.1-1.8
			c1.1-2,2.3-3.9,3.3-5.8c1.7-6.2,2.8-12,2.5-20.2c-0.1-2-0.2-4.1-0.4-6.5c-0.9,3.7-2.1,8.1-3.7,12.7c-0.1,0.2-0.1,0.4-0.2,0.6
			c-0.2,0.5-0.4,1.1-0.6,1.6c-0.3,0.8-0.6,1.6-0.9,2.4c-0.3,0.9-0.6,1.7-1,2.6c0,0.1-0.1,0.2-0.1,0.3c-0.3,0.7-0.5,1.4-0.8,2.1
			c0,0.1,0,0.1-0.1,0.2c-0.3,0.8-0.6,1.5-0.9,2.2c-0.4,0.9-0.7,1.7-1.1,2.6C175.4,112.6,175.2,112.9,175.1,113.2 M96.7,192.1v-0.2
			c-0.2,0.1-0.5,0.2-0.7,0.2c-1.6,0.6-3.3,1.2-5.1,1.8c0.4,0.4,0.8,0.7,1.3,1.1c0.5,0.4,1.1,0.8,1.6,1.1c1.4-0.5,2.8-1,4-1.4
			c-0.6-0.6-1-1.5-1-2.4C96.7,192.3,96.7,192.2,96.7,192.1 M180.1,130.5c-0.5,0.5-0.9,0.9-1.4,1.4c-0.5,0.5-0.9,0.9-1.4,1.4
			l-0.1,0.1c-0.2,0.2-0.3,0.3-0.5,0.5c-0.2,0.2-0.3,0.3-0.5,0.5c-1.2,1.2-2.4,2.3-3.6,3.5c-0.4,0.3-0.7,0.7-1.1,1.1c0,0,0,0,0,0
			c-0.4,0.3-0.7,0.7-1.1,1l-0.4,0.4c-0.3,0.2-0.5,0.5-0.8,0.8l-0.2,0.1l-0.4,0.4c-0.2,0.2-0.4,0.3-0.6,0.5c-0.8,0.7-1.6,1.4-2.4,2.1
			c-0.1,0.1-0.2,0.2-0.3,0.3c0,0.1,0,0.2,0,0.3c0,0.1,0,0.2,0,0.3c0,0.6,0,1.2,0,1.8c0,0.2,0,0.5,0,0.7c0,0.2,0,0.5,0,0.7v0.1
			c0.3-0.1,0.6-0.3,0.9-0.5c0.3-0.1,0.6-0.3,0.9-0.5c0.3-0.2,0.6-0.3,0.9-0.5c0.3-0.1,0.5-0.3,0.8-0.5c0.4-0.2,0.8-0.5,1.2-0.8
			c0.4-0.3,0.9-0.5,1.3-0.8c0.4-0.3,0.8-0.6,1.2-0.8c4.6-5.2,8.8-11.2,13-19.7C184.1,126.3,182.1,128.3,180.1,130.5 M166.9,137.4
			L166.9,137.4c0.1-0.2,0.2-0.3,0.3-0.5c0.1-0.1,0.2-0.3,0.3-0.4c0-0.1,0.1-0.1,0.1-0.2c0,0,0.1-0.1,0.1-0.1
			c-0.1-1.1-0.1-2.1-0.2-3.1c-0.1-0.9-0.2-1.8-0.3-2.7c0-0.3-0.1-0.7-0.1-1c0-0.3-0.1-0.7-0.1-1c-0.1-0.7-0.2-1.4-0.4-2.1
			c-0.2-1.3-0.6-2.7-0.9-4c-1.1-3.9-2.7-8-5.4-12.7c1.3,5.9,2.1,12.7,2.5,19.1c1.4,4.2,2.1,7.8,2.4,11.3c0.4-0.6,0.8-1.2,1.2-1.9
			C166.5,138,166.7,137.7,166.9,137.4 M160.9,148.4L160.9,148.4L160.9,148.4c0-0.3,0-0.5-0.1-0.7v0c0-0.2,0-0.5-0.1-0.7
			c0-0.1,0-0.2,0-0.2c-0.2-1.9-0.7-3.8-1.4-5.7c-0.2-0.5-0.3-0.9-0.5-1.4c-0.2-0.4-0.3-0.8-0.5-1.3c-1.2-2.8-2.8-5.7-4.8-8.8
			c1.9,6.4,3.6,12.7,4,18.3c0,0.5,0.1,0.9,0.1,1.4c0,0.3,0,0.6,0,0.9v0.5c0,0.5,0,1.1-0.1,1.6c-0.1,0.7-0.2,1.3-0.3,1.9
			c-0.1,0.3-0.1,0.7-0.2,1c-0.1,0.4-0.2,0.8-0.3,1.2c-0.1,0.2-0.1,0.3-0.2,0.5c0,0.1-0.2,0.4-0.2,0.6c0.1,0.1,0.3,0.2,0.4,0.3h0
			c0.2,0.1,0.3,0.2,0.5,0.3c0,0,0,0,0,0c0.6,0.5,1.1,0.9,1.7,1.5c0,0,0.1,0.1,0.1,0.1c0.1-0.2,0.2-0.5,0.3-0.7
			c0.1-0.2,0.1-0.3,0.2-0.5l0-0.1c0.1-0.2,0.1-0.3,0.2-0.5c0-0.1,0.1-0.2,0.1-0.4c0-0.1,0-0.1,0.1-0.2c0.1-0.3,0.2-0.5,0.2-0.8
			c0.1-0.3,0.2-0.7,0.3-1c0.1-0.3,0.1-0.5,0.2-0.8c0.1-0.3,0.1-0.5,0.1-0.8c0.1-0.3,0.1-0.6,0.1-0.9c0-0.4,0.1-0.9,0.1-1.3
			c0,0,0-0.1,0-0.1c0-0.2,0-0.4,0-0.6c0-0.2,0-0.3,0-0.5v-0.2c0-0.3,0-0.7,0-1c0-0.2,0-0.4,0-0.6
			C160.9,148.5,160.9,148.4,160.9,148.4 M120.6,183.3c-3.6,1.7-7.2,3.3-11.2,4.6c0.1,0.3,0.1,0.6,0.1,1v2.2c0.3-0.1,0.5-0.2,0.8-0.3
			c4.2-1.5,8.2-3.3,12.1-5.3C122,185.1,120.9,183.8,120.6,183.3 M152.8,161.8l-0.3-0.4l-0.3,0.4c-2.8,2.8-5.3,4.9-8.6,7.2
			c-1.1-0.8-2.2-1.4-3.7-2c-0.6,0.5-1.2,0.9-1.8,1.3c0,0,0,0.1,0.1,0.1c1,1.6,4.7,6.9,10.3,8.4l1.3,0.4c-0.1-0.9-0.7-2.9-2.9-5.3
			l-1.1-1c3.2-2.3,5.7-4.3,8.5-7.1l0.4-0.4l-0.4-0.3C153.7,162.7,153.3,162.3,152.8,161.8"/>
		<path fill="#E2023D" d="M39.1,129.7c-0.1,0-0.2,0-0.3,0c-0.2,0-0.4,0-0.6,0.1c-0.2,0.1-0.5,0.2-0.7,0.3c-0.2,0.1-0.3,0.2-0.4,0.4
			c0,0,0.1,0.1,0.1,0.1c0.1,0.2,0.2,0.3,0.3,0.5c0.1,0.3,0.2,0.5,0.3,0.8c0,0.2,0,0.4,0,0.6c0,0.5-0.1,1-0.3,1.4
			c0.4,0.3,0.9,0.5,1.4,0.5c0.4,0,0.9-0.1,1.3-0.4c0.7-0.5,1-1.2,1-1.9c0-0.5-0.1-0.9-0.4-1.3C40.4,130.1,39.8,129.7,39.1,129.7
			 M122.6,201.2c-1.5,1.2-2.9,2.1-4.2,2.9v7.6l7.5,2.4V214l0-11.4C124.8,202.1,123.7,201.7,122.6,201.2 M121.1,200.3
			c0.2-0.1,0.3-0.3,0.5-0.4c0.2-0.1,0.3-0.3,0.5-0.4c0.7-0.6,1.5-1.3,2.3-2.1c-2.6-1.1-5.3-2.1-7.4-2.9c-0.5,0.4-1.1,1-1.8,1.5
			c-0.3,0.2-0.5,0.4-0.8,0.6c-0.2,0.1-0.4,0.3-0.6,0.4c-0.2,0.1-0.4,0.3-0.6,0.4c-1.1,0.6-2.4,1.1-3.7,1.1c-1.4,0-2.9-0.5-4.5-1.8
			c-0.1-0.1-0.2-0.2-0.3-0.2c0,0.3,0.1,0.5,0.2,0.8c0.8,3.4,3,7.2,7.3,7.2c1.5,0,3.1-0.4,5.1-1.5c0.2-0.1,0.4-0.2,0.6-0.3
			c0.2-0.1,0.4-0.2,0.6-0.3C119.3,201.6,120.2,201,121.1,200.3 M51.7,154.4c-0.3,0-0.6,0.1-0.9,0.2c-0.9,0.4-1.4,1.2-1.4,2.1
			c0,0.3,0.1,0.6,0.2,0.9c0,0,0,0,0,0c0.3,0.1,0.7,0.2,0.9,0.4c0.4,0.3,0.8,0.6,1.1,1c0,0,0.1,0,0.1,0c0.3,0,0.6-0.1,0.9-0.2
			c0.9-0.4,1.4-1.2,1.4-2.1c0-0.3-0.1-0.6-0.2-0.9C53.4,154.9,52.6,154.4,51.7,154.4 M36.5,131.7C36.5,131.7,36.5,131.7,36.5,131.7
			c-0.1-0.2-0.1-0.4-0.3-0.5c0-0.1-0.1-0.1-0.1-0.2c-0.1-0.1-0.2-0.2-0.2-0.3c-0.1-0.1-0.1-0.1-0.2-0.2c-0.2-0.2-0.5-0.3-0.7-0.4
			c0,0,0,0-0.1,0c-0.1,0-0.3-0.1-0.4-0.1h-0.1c0,0-0.1,0-0.1,0h0c-0.1,0-0.3,0-0.4,0v0c0,0-0.1,0-0.1,0c0,0-0.1,0-0.1,0
			c-0.1,0-0.2,0.1-0.4,0.1c-0.1,0.1-0.2,0.1-0.3,0.2c-0.2,0.1-0.3,0.2-0.4,0.4c-0.2,0.1-0.3,0.3-0.4,0.5c-0.1,0.1-0.1,0.2-0.2,0.3
			c0,0.1-0.1,0.3-0.1,0.4c0,0,0,0.1,0,0.1v0.1v0c0,0.1,0,0.1,0,0.2c0,0.1,0,0.2,0,0.3c0,0,0,0,0,0v0c0,0,0,0.1,0,0.1
			c0.1,0.4,0.3,0.8,0.6,1.1c0,0,0.1,0.1,0.1,0.1c0,0,0.1,0.1,0.1,0.1c0.1,0.1,0.3,0.2,0.4,0.3c0.1,0,0.1,0.1,0.2,0.1
			c0.1,0,0.2,0.1,0.3,0.1c0.2,0,0.3,0.1,0.5,0.1h0.1c0.1,0,0.2,0,0.3,0c0.1,0,0.1,0,0.2-0.1c0.1,0,0.2-0.1,0.3-0.1
			c0.1,0,0.3-0.1,0.4-0.2c0,0,0.1-0.1,0.1-0.1c0.1-0.1,0.3-0.2,0.4-0.3c0,0,0,0,0,0c0,0,0,0,0-0.1c0.1-0.1,0.2-0.3,0.3-0.4
			c0.1-0.3,0.2-0.5,0.2-0.8c0-0.1,0-0.2,0-0.2c0-0.1,0-0.3,0-0.4C36.6,131.9,36.6,131.8,36.5,131.7 M158.2,160.9
			c-0.1-0.1-0.2-0.3-0.4-0.4v0c0,0-0.1-0.1-0.1-0.1c-0.5-0.6-1-1.1-1.5-1.5c-0.2-0.2-0.3-0.3-0.5-0.4c0,0-0.1-0.1-0.1-0.1
			c-0.2-0.1-0.3-0.3-0.5-0.4c0,0-0.1-0.1-0.1-0.1c0,0,0,0,0,0c0,0-0.1-0.1-0.1-0.1c-0.7,0.7-1.1,1.3-1.7,2.2c0,0,0.1,0,0.1,0.1
			c0.2,0.2,0.3,0.4,0.5,0.6c0.1,0.1,0.2,0.2,0.3,0.4c0,0,0.1,0.1,0.1,0.1c0.3,0.3,0.6,0.6,0.9,0.9c0,0,0,0,0,0
			c0.2,0.2,0.4,0.4,0.7,0.6c0.2,0.1,0.4,0.3,0.6,0.5c0,0,0,0,0,0c0.5-0.3,0.8-0.7,1.2-1c0.3-0.3,0.5-0.5,0.9-0.8c0,0,0,0,0,0
			c0,0,0,0,0,0C158.3,161.1,158.2,161,158.2,160.9 M99.3,194c0.2,0.2,0.5,0.3,0.8,0.3c0.2,0.1,0.4,0.1,0.6,0.1h4.9
			c0.3,0,0.5-0.1,0.7-0.1c0.3-0.1,0.5-0.2,0.7-0.3c0.5-0.3,0.8-0.8,0.9-1.4c0.1-0.2,0.1-0.4,0.1-0.6v-3c0-0.2,0-0.4-0.1-0.5
			c0-0.2-0.1-0.4-0.2-0.5c-0.1-0.2-0.2-0.4-0.3-0.5c-0.5-0.5-1.1-0.9-1.9-0.9h-4.9c-0.8,0-1.4,0.4-1.9,0.9c-0.1,0.1-0.2,0.3-0.3,0.5
			c-0.1,0.2-0.1,0.3-0.2,0.5c0,0.2-0.1,0.4-0.1,0.6v3c0,0.2,0,0.4,0.1,0.6C98.5,193.2,98.8,193.7,99.3,194 M30.9,133
			C30.9,133,30.9,133,30.9,133c0-0.1,0-0.2,0-0.3c-0.3-0.1-0.5-0.2-0.8-0.2h0h0c-0.6,0-1.1,0.2-1.5,0.6c-0.5,0.4-0.9,1.1-0.9,1.8h0
			c0,1.3,1,2.3,2.3,2.4H30h0c1,0,1.8-0.6,2.2-1.5c0.1-0.2,0.1-0.4,0.2-0.5c-0.2-0.1-0.4-0.3-0.6-0.5C31.3,134.3,31,133.7,30.9,133
			 M80.3,202.8v11.4v0.1l7.5-2.4V204c-1.2-0.7-2.6-1.6-3.9-2.7C82.6,201.7,81.5,202.3,80.3,202.8 M25.7,83.8c0,0,0.1,0,0.1,0
			c0.1,0,0.3,0,0.4,0h0.1c0,0,0.1,0,0.1,0c0.2,0,0.4,0,0.6-0.1h0c0.6-0.2,1.1-0.6,1.4-1.1c0.1-0.2,0.2-0.4,0.2-0.6
			c0-0.2,0.1-0.3,0.1-0.5v-0.1c0,0,0-0.1,0-0.1c0-0.2,0-0.4-0.1-0.6c0,0,0-0.1,0-0.1v0c0-0.1-0.1-0.2-0.1-0.3c0-0.1-0.1-0.1-0.1-0.2
			c0,0,0-0.1-0.1-0.1c0,0-0.1-0.1-0.1-0.1c-0.2-0.2-0.3-0.4-0.6-0.5c-0.1,0-0.1-0.1-0.2-0.1c-0.2-0.1-0.5-0.2-0.7-0.2
			c-0.1,0-0.2,0-0.4,0c-0.6,0-1.2,0.2-1.6,0.6c-0.1,0.1-0.2,0.3-0.4,0.4c-0.1,0.2-0.2,0.3-0.3,0.5c-0.1,0.2-0.1,0.5-0.1,0.8
			C23.9,82.7,24.7,83.6,25.7,83.8 M96.9,198.3c-1.3,0-2.6-0.4-3.7-1.1c-0.2-0.1-0.4-0.3-0.6-0.4c-0.2-0.1-0.4-0.3-0.6-0.4
			c-0.3-0.2-0.5-0.4-0.8-0.6c-0.7-0.5-1.3-1.1-1.8-1.5c-2.1,0.8-4.9,1.9-7.4,2.9c0.8,0.8,1.6,1.5,2.3,2.1c0.2,0.1,0.3,0.3,0.5,0.4
			c0.2,0.1,0.3,0.3,0.5,0.4c1,0.7,1.9,1.4,2.7,1.9c0.2,0.1,0.4,0.2,0.6,0.3c0.2,0.1,0.4,0.2,0.6,0.3c1.9,1,3.6,1.5,5.1,1.5
			c4.3,0,6.5-3.8,7.3-7.2c0.1-0.3,0.1-0.5,0.2-0.8c-0.1,0.1-0.2,0.2-0.3,0.2C99.9,197.8,98.3,198.3,96.9,198.3 M50.9,160.1
			c-0.1-0.3-0.4-0.6-0.7-0.9c-0.1-0.1-0.2-0.1-0.3-0.2c-0.1,0-0.1-0.1-0.2-0.1c-0.3-0.1-0.6-0.2-0.9-0.2h0h-0.1
			c-0.2,0-0.4,0-0.5,0.1c-0.4,0.1-0.7,0.3-1,0.5c-0.1,0.1-0.3,0.3-0.4,0.4c-0.1,0.2-0.2,0.4-0.3,0.5c0,0.1-0.1,0.2-0.1,0.3
			c0,0.1,0,0.3-0.1,0.4h0c0,0.1,0,0.2,0,0.3c0.1,0.7,0.5,1.3,1.2,1.7c0.3,0.2,0.6,0.3,1,0.3h0.1h0c0.2,0,0.4,0,0.6-0.1
			c0.2-0.1,0.4-0.1,0.6-0.2c0.2-0.1,0.3-0.2,0.5-0.3c0.4-0.4,0.7-1,0.7-1.6V161c0-0.3-0.1-0.5-0.2-0.8
			C50.9,160.2,50.9,160.1,50.9,160.1 M27.9,109.8L27.9,109.8H28c0.1,0,0.1,0,0.2,0c0,0,0.1,0,0.1,0c0.2,0,0.3-0.1,0.5-0.1
			c0,0,0,0,0,0c0,0,0,0,0,0c0.1,0,0.3-0.1,0.4-0.2c0.1,0,0.1-0.1,0.1-0.1c0.1-0.1,0.2-0.2,0.3-0.3c0.3-0.3,0.4-0.6,0.6-1
			c0-0.2,0-0.3,0-0.5v-0.1c0,0,0-0.1,0-0.1c0-0.2,0-0.4-0.1-0.6c-0.1-0.2-0.2-0.4-0.3-0.6c-0.1-0.2-0.2-0.3-0.4-0.4
			c-0.1-0.1-0.3-0.2-0.5-0.3c-0.1-0.1-0.3-0.1-0.4-0.2c-0.1,0-0.2,0-0.2-0.1c-0.1,0-0.2,0-0.3,0c0,0-0.1,0-0.1,0h0c0,0-0.1,0-0.1,0
			c-0.1,0-0.2,0-0.3,0c-0.1,0-0.1,0-0.2,0.1c-0.1,0-0.2,0.1-0.3,0.1c-0.1,0.1-0.2,0.1-0.4,0.2c0,0,0,0-0.1,0.1
			c-0.2,0.1-0.3,0.2-0.4,0.4c0,0,0,0,0,0c-0.2,0.2-0.3,0.4-0.3,0.6c0,0.1-0.1,0.3-0.1,0.5c0,0.1,0,0.2,0,0.3c0,0.2,0,0.3,0,0.4
			c0,0.2,0.1,0.5,0.2,0.7c0.1,0.1,0.2,0.3,0.3,0.4c0.1,0.2,0.3,0.3,0.5,0.4c0,0,0,0,0.1,0c0.2,0.1,0.3,0.2,0.5,0.2
			C27.5,109.7,27.6,109.8,27.9,109.8C27.8,109.8,27.9,109.8,27.9,109.8 M45.5,162.1c-0.2-0.1-0.4-0.2-0.6-0.2
			c-0.8,0.6-1.8,1.1-2.8,1.6c-0.1,0.2-0.1,0.4-0.1,0.6v0c0,1.3,1,2.3,2.2,2.3h0.1h0c1.2,0,2.3-1,2.3-2.3v-0.1c0-0.1,0-0.2,0-0.4
			C46.1,163.4,45.7,162.8,45.5,162.1 M25.7,111.1c0-0.2-0.1-0.4-0.1-0.6c-0.1-0.3-0.3-0.5-0.5-0.8c-0.1-0.1-0.1-0.1-0.2-0.2
			c-0.4-0.4-0.9-0.6-1.5-0.6c0,0-0.1,0-0.1,0c0,0-0.1,0-0.1,0h0c-0.2,0-0.4,0.1-0.7,0.1c-0.2,0.1-0.4,0.2-0.6,0.3
			c-0.6,0.4-1,1.2-1,2v0.1c0.1,1.2,1.1,2.2,2.4,2.2h0.1c0.8,0,1.5-0.5,1.9-1.1c0.2-0.3,0.4-0.8,0.4-1.2L25.7,111.1
			C25.7,111.1,25.7,111.1,25.7,111.1 M31.7,110c0.8,0,1.5-0.4,2-1.1c0.2-0.4,0.4-0.8,0.4-1.3c0-0.6-0.2-1.2-0.6-1.6
			c-0.6,0.5-1.3,0.9-1.9,1.3c0,0,0,0,0,0.1v0v0c0,0.9-0.4,1.6-0.9,2.3C31,109.9,31.3,110,31.7,110 M30.5,80.2
			c0.2,0.2,0.4,0.3,0.6,0.4c0.1,0.1,0.3,0.1,0.4,0.1c0.1,0,0.3,0,0.4,0.1c0.1,0,0.1,0,0.2,0c1.1,0,2-0.7,2.3-1.8
			c0.1-0.2,0.1-0.4,0.1-0.6c0-1-0.6-1.9-1.6-2.2c-0.7,1.1-1.4,2.1-2.3,3c-0.2,0.2-0.3,0.3-0.5,0.4c0,0,0,0,0,0
			C30.2,79.8,30.4,80,30.5,80.2"/>
		<path fill="#000100" d="M102.4,35.8c0.6-0.3,1.1,0.3,1.5,0.3c0.5,0,0.9-0.7,1.6-0.3c0.2,0.1,0.2,0,0.3-0.1c0.1-0.2,0-0.7-0.2-0.7
			c-0.3,0.1-0.9,0.5-1.7,0.5c-0.7,0-1.3-0.4-1.6-0.5c-0.2,0-0.3,0.4-0.2,0.7C102.1,35.9,102.2,35.9,102.4,35.8"/>
		<path fill="#000100" d="M106.7,37.9c-0.6,0.5-1.7,0.7-2.6,0.7c-0.9,0-2.2-0.2-2.8-0.7c-0.3-0.3-0.3,0.4-0.3,0.7
			c0,0.9,0.4,0.2,0.6,0.6c0.4,0.6,1.6,0.9,2.4,0.9c0.8,0,2-0.3,2.4-0.9c0.2-0.4,0.6,0.3,0.6-0.6C107,38.2,106.9,37.6,106.7,37.9"/>
		<path fill="#000100" d="M108.8,28.4c-1.3,0-3.2-0.3-3.2,0.6c-0.1,1.5,2.2,0.1,1.8,0.9c0,0.1-0.1,0.2-0.1,0.4
			c0,0.5,0.4,0.8,0.8,0.8c0.5,0,0.8-0.4,0.8-0.8c0-0.2,0-0.3-0.1-0.5c-0.3-0.4,1.1-0.6,2.1-0.2c0.2,0.1,0.4,0.4,0.5,0.2
			C112.1,28.8,110.1,28.4,108.8,28.4"/>
		<path fill="#000100" d="M105.6,41.1c-1.1,1.1-2.6-0.5-3.5,0.5c-0.3,0.4,0.5,0.7,0.9,0.9c0.7,0.2,1.7,0.4,2.5,0
			C106,42.1,106.1,41.3,105.6,41.1"/>
		<path fill="#000100" d="M116.9,25.9c-0.6,0.1,1.4-0.6,0.2-1.1c-0.5-0.3-0.7-0.3-0.2-1.5c0.8-2-1.2-1.6-1.4-2.6
			c-0.3-1.9-2-1.9-2.2-3c-0.3-1.4-3.3-1.9-3.4-2.2c-0.2-0.3-0.6-0.6-0.8-0.2c-0.3,0.9-0.8-0.8-1.2-0.9c-0.8-0.2-2.9,0.9-5.1-0.3
			c-1.7-0.9-4.5,0-7.5,2.3c-1.2,0.9-1.9,1.8-2.8,3C90,22.7,90.8,24,92,24.5c-0.4,0.2-0.8,0.2-1.2,0c-0.6-0.3-0.6,1.5-0.5,1.8
			c0.2,0.6,0,1.5-0.3,2.2c-0.3,0.7,0.5,1.3,0.5,2c0,1.8,1.1,3,2.4,3.5c0.5,0.2,0,1,0.5,1.7c0.8,1.1,0.6,0.3,0.8,1.1
			c0.1,0.5,0.7,1.3,0.9,1.5c0.2,0.2,0.9,0.5,0.7,0.1c-1.1-1.8-0.9-2.7-1.2-3.7c0.2-1.4-0.3-3.4-0.6-3.7c-0.4-0.6-1-0.2-0.9-0.7
			c0.1-0.5,0.8-0.5,0.8-1.1c-0.1-0.9-0.1-1.5,0.5-2.3c0.6-0.8,0.5-1.5,0.1-2c0.9-1.3,0.3-1.9,2.2-2.9c0.9,4.4,5.2,0.9,6.8,1.3
			c3.9,0.8,6-1.2,6.3-2.9c0.1-0.3,0.5-0.1,0.6,0c0.5,0.4,1.1,1.8,1.2,2.4c0.2,0.9,0.9,1.1,1.2,2.1c0.2,0.7-0.2,1,0.3,2.7
			c0.4,1.3-0.2,1.4-0.2,3.7c0,0.3,0.4,1.3,0.3,1.6c-0.2,3,0.1,2.2-1.2,4.7c-0.2,0.4-0.2,0.7-0.1,1c1.8-1.8,2.2-3.1,2.4-3.2
			c1.4-0.4,1.2-1,1.7-2.3c0.2-0.5,0.6-0.4,0.8-1.4c0.3-1,0.5-0.5,0.6-1.5c0.1-1,0.2-2-0.1-2.9C117.1,26.3,117.5,25.8,116.9,25.9"/>
		<path fill="#000100" d="M154.9,63.2c-1.8,1.4-3.5,3.1-5,5c2.5,1.4,5.3,3.2,5.3,3.2c-5.6,5.1-9,15.2-7.4,21
			C151,103.7,169.2,73.4,154.9,63.2 M155.7,82.1c-1.5-0.7-3.7-2-4.1-3.1c1.3-2.5,2.3-4.7,4.6-6C157.5,76,156.5,79.3,155.7,82.1"/>
		<path fill="#000100" d="M51.3,71.4c0,0,2.8-1.8,5.3-3.2c-1.5-1.9-3.2-3.5-5-5c-14.3,10.2,4,40.5,7.1,29.2
			C60.3,86.6,56.8,76.6,51.3,71.4 M50.8,82.1C50,79.3,49,76,50.3,73c2.3,1.2,3.3,3.5,4.6,6C54.5,80.1,52.2,81.4,50.8,82.1"/>
		<path fill="#000100" d="M101.7,29c-0.1-0.9-1.9-0.7-3.2-0.6c-1.3,0.1-3.3,0.4-2.7,1.5c0.1,0.2,0.3-0.2,0.5-0.2
			c1-0.4,2.5-0.2,2.1,0.2c-0.1,0.1-0.1,0.3-0.1,0.5c0,0.5,0.4,0.8,0.9,0.8c0.5,0,0.8-0.4,0.8-0.8c0-0.1,0-0.3-0.1-0.4
			C99.5,29.1,101.8,30.5,101.7,29"/>
		<path fill="#014128" d="M155,52.6c-4-5.1-18.9-18.5-26.9-18.3c-8,0.2-14.4,10.3-24.8,10.9c-10.4-0.6-16.9-10.8-24.8-10.9
			c-8-0.2-22.9,13.2-26.9,18.3c-0.6,0.8,3.2,1.8,6.2,1.3c3.8-0.6,10.4-3.1,14.3-3.9c7.1-1.3,14.6,0.4,17.7,1.6
			c3.1,1.2,6.5,1.5,9-0.1c1.7-1.1,3.2-2.3,4-3.9h0c0.2-0.3,0.2-0.7,0.5-0.7c0.2,0,0.3,0.5,0.5,0.8c0,0,0,0,0,0
			c0.8,1.6,2.3,2.8,4,3.9c2.5,1.6,5.9,1.3,9,0.1c3.1-1.2,10.6-3.1,17.7-1.8c3.9,0.7,10.5,3.2,14.3,3.9
			C151.8,54.4,155.6,53.4,155,52.6 M98.4,92.9c0.6,0,0.4-0.1,0.4-0.5c0-0.4-0.2-0.6-0.8-0.5C97.5,91.8,97.8,92.9,98.4,92.9
			 M101.3,98.9c0.6,0.5,1.1,0.7,1.5,0.3c0.4-0.4,0-0.5,0-0.5C102.2,98.5,100.9,98.6,101.3,98.9 M99.2,97.4c0.8-0.4,1.3-1.1,1.3-1.9
			c0-1.1-2.3-2.1-3-1.1C97.1,95,98.4,97.7,99.2,97.4 M101.3,91.3c2.9-1,3.4,3.9,4.4,1.7c1.1-2.2-2-4-3.3-3.6c-1.3,0.3-1.3-0.6-1.7,0
			C100.4,90,100.5,91.6,101.3,91.3 M82.6,115.8c0.9-2.1,2.2-2.9,2.1-4c-0.1-1.1-1.6-1.1-2.4-0.6c-1,0.7-0.8,2.1-0.9,3.3
			c0,0.5-1.1,0.6-0.7,1.5C81.1,116.8,81.7,117.9,82.6,115.8 M134,140.7l0-0.7V85c0-0.1,0-0.2,0-0.4c0-2,0-3.4-1.1-4.6
			c-1.2-1.2-2.8-1.1-5.2-1.1H79.4c-2.6,0-4.4,0.3-5.5,1.5c-1.1,1.3-1.2,3-1.2,5.4v54l0,0.7c0,0.7-0.1,1.5-0.1,2.3
			c-0.1,6,2,15.3,18.8,21c1,0.3,2,0.7,3.1,1.1c2.9,1,5.8,2,8.2,3.1c0.2,0.1,0.5,0.1,0.7,0.1c0.2,0,0.5,0,0.7-0.1
			c2.3-1,5.3-2.1,8.2-3.1c1.1-0.4,2.1-0.7,3.1-1.1c16.8-5.8,18.9-15,18.8-21C134,142.1,134,141.4,134,140.7 M114.6,162.3
			c-1,0.4-2,0.7-3.1,1.1c-2.9,1-5.8,2-8.3,3.1c-2.4-1.1-5.4-2.1-8.3-3.1c-1.1-0.4-2.1-0.8-3.1-1.1c-16.2-5.8-17.5-13.7-17.6-19.3
			c0-0.8,0-1.5,0.1-2.2l0-0.8V85.9c0-2.4,0.2-3.7,0.8-4.2c0.5-0.6,1.6-0.9,4.1-0.9h48.4c2.5,0,3.5,0.1,3.9,0.6
			c0.4,0.4,0.6,1.2,0.5,3.3v0.4V140l0,0.7c0,0.7,0.1,1.4,0.1,2.3C132.1,148.6,130.9,156.5,114.6,162.3 M122.6,124.7
			c0.6-2,2.6-3,3-3.9c0.3-1-0.8-0.4-1.1-0.9c-0.3-0.5,0.5-0.8,1.1-1.4c1.4-1.4-3.9-1.6-4.3-1.3c-0.4,0.3,0.6,0.8-0.2,1
			c-0.8,0.2-1.5-0.2-2.2-1c-0.6-0.9,2.3-1.3,2.9-3.4c0.7-2.1,2.6,0.7,2.4-1.3c-0.1-1,0.8-0.1,1.5-1.6c0.8-1.6-4.1-1.2-3.4-3.2
			c0.1-0.4,0.6-0.2,0.5-1c0-0.8-1.8,1.2-2.4-0.3c-0.6-1.5,2.7-3.8,1.9-3.9c-1.3-0.3-2.5,1-3.2-0.4c-0.6-1.2-3-0.7-3.4-1.9
			c-0.9-2.7,1.7-3.1,1.5-7.4c-0.1-1.3-0.5-0.5-0.8,0c-2,3.6-3.5-2.1-5.8-0.6c-1.1,1-1-1.3-1.5-1.6c-0.7-0.4-1.8-0.2-1.9,0.9
			c-0.1,1,1.1-0.3,1.7,1c0.5,1.3-2.5,4.3-0.9,3.7c1.6-0.6,1.9,0.8,3-0.3c0.4-0.4-1.6-0.2-1.1-1.3c0.5-1.1,2.8-1.1,3.4-0.2
			c0.6,0.9,0.4,1.8-0.4,2.4c-1.6,1.2-3.8,0.1-4.5,1.3c-0.8,1.2,1.2,0.3,1.5,1c1.9,3.5-3.2,2.8-5,4.5c-1.7,1.7-1.2-3.1-3-2.9
			c-0.5,0.1,0,1.1-0.2,1.5c-2,4.1-3-3.7-4.4-2.1c-0.6,0.7-0.4,1.5,0.1,3c0.5,1.4,3.9,0.6,4.7,1.3c0.8,0.7,0.8,1.5,0.1,1.8
			c-0.4,0.3-1.4,0.3-2.3-0.8c-0.9-1.1-2.9-0.2-2.8,0.5c0,0.8,1.3,2.3-0.4,3.6c-1.6,1.2-3.8-2.3-3.8-3.9c0-1.7,2.3-1.2,3.1-2.9
			c0.2-1.1-0.6-1.9-1.5-1.6c-0.9,0.2-0.2,1.2-1.1,1.6c-1,0.5-1.5-3.6-2.9-1.1c-2.2,3.9-5.1-2-5.8,0.8c-0.7,2.7-1.8,3.3-1.3,4.5
			c0.5,1.2,1-1.3,2.4-0.8c1.3,0.6,0.1,1.5,0.6,2.6c0.1,0.6,0.7,1.1,1.7,0.8c1-0.3,1.3-1.6,2.2-2.1c1-0.5,2.2,0,2.5,1.2
			c0.4,1.2-1.8,2.9-2.3,2.9c-0.5,0-3-1.5-3.2-0.2c-0.2,1.3,1.4,1.2,0.7,2.1c-0.7,0.9-3.9-0.8-3.3,0.6c0.6,1.4,0.4,1.5-0.2,3.2
			c-0.6,1.7,1.9-0.2,2.5,0.6c0.1,1.4-0.4,0.9-2.5,1.5c-2,0.6-1.3,2.2-1.2,3.4c0.1,1.2-2.9,3.6-1.8,4.5c1.1,0.9,2.2-0.8,2.4,0.3
			c0.1,1.1-1.5,0.5-1.8,1.2c-0.4,0.7-0.4,1.1,0.4,1.5c0.8,0.4,2-1.5,3-1.9c0.6-0.2,1,0,2.2-1.6c1.5-2.1,0.2,1.5,2.9,2.6
			c2.7,1.1,0.2-4.4,2.6-5.5c0.8-0.3,1.2-0.1,1.3,0.6c0.5,3.1,4.2,1.6,4.2,6.3c0,4.7,6.5,7.2,0.7,13.1c-0.8,0.8-1.9,2-3.8,1
			c-3.4-1.8-5.5,0.2-6.4,0.6c-1.6,0.6-4.1-0.7-4.9,2.3c2.4-3.1,3.6,0.2,6.4-1.7c1.2-0.9,4.3-0.2,1.6,2.1c-0.9,0.8-0.4,1.2-1.6,1.6
			c-1.3,0.3-2.1,1.6-1.9,2.8c1-3.1,2.9-1,3.7-3c0.5-1.3,2.1-1,2.4-0.1c0.4,1.4,3.4-0.9,2.9,0.8c-0.3,0.9-0.5,1-1.2,1.4
			c-1.7,1.1-2,2.4-5.3,1.8c-2.1-0.3-3.6,0.7-3.3,2.4c0.8-1.7,2.1-2,4.2-1.1c2.2,1,4.8,0.2,5.5-1c0.5-0.9,1.3-0.3,2.3-2
			c2.6-4.1,3.3-1.2,4-0.1c0.7,1.1,1.5,1.3,2.3,2.8c1.2,2.2,3.4,1,2.6,4.9c2.3-4.5-2.4-4.9-0.9-7.3c1.3-2.2-1.6-6.1,5-3.5
			c2.6,1,4.8-2.4,6.8,0.4c-0.8-3.5-4.9-0.7-7.4-2.7c-2.4-1.9-3.6-1.2-5.3-1.3c-0.7,0-0.9-0.9-1-1.3c-0.4-1.5-0.4-2.9,0.8-4.7
			c1.1-1.8-2.3-5.2-3.4-7.7c-0.7-1.4-0.7-2.8,0-4.2c0.4-0.9-0.6-2.4,2.1-3c2.1-0.4,5.2,1,5.3,1.7c0.1,1-0.9,0.2-1.3,0.8
			c-0.6,0.9-1,2.5-0.4,1.8c0.2-0.2,0.8,0,1.1-0.3c1-0.9,2.5-0.1,3.4,0.8c1.2,1.1,1.5-0.1,2.1-0.8c0.9-0.9,1.8-2.9,3.7-0.6
			c0.8,0.9,2.2,0.6,3.6,0.2c0.9-0.3,3.5,0.3,2.2-1.5C124.1,124,122,126.7,122.6,124.7 M93.9,99.2c0.5,0.2,1.4,0,1.3-0.5
			c-0.1-1-0.7-0.6-0.3-1.3c0.4-0.9-2.4-1-1.8-0.3C94.2,98.2,92.3,98.6,93.9,99.2 M89.2,98.9c1.5-1.6,3.9-3.2,2.9-5.3
			c-0.2-0.5-0.7-1.1-1.3-0.8c-4.1,2.3-2.8,3.6-4.3,4.3c-1.5,0.8-2.9,0-3.4,1.5C82.3,101.1,87.9,100.3,89.2,98.9"/>
		<path fill="#FFFFFF" d="M79.2,39.5c-4.8-1.7-9.9,0.6-13,2.5c3-2.8,7.9-6.9,13.6-6c3,0.5,5.9,3.5,8.8,5.4c4,2.7,5.9,4,10.3,4.9
			c0.4,0.1,1.1,0.2,1.1,0.2C92.6,48.8,88.6,42.9,79.2,39.5"/>
		<path fill="#FFFFFF" d="M127.7,39.5c-9.5,3.4-13.4,9.3-20.9,7.1c0,0,0.7-0.1,1.1-0.2c4.3-0.9,6.3-2.3,10.3-4.9
			c2.9-2,5.8-4.9,8.8-5.4c5.7-0.9,10.6,3.1,13.6,6C137.6,40.1,132.6,37.8,127.7,39.5"/>
	</g>
</g>
</svg>
